<?xml version="1.0" standalone="no"?>
<!DOCTYPE svg PUBLIC "-//W3C//DTD SVG 20010904//EN"
 "http://www.w3.org/TR/2001/REC-SVG-20010904/DTD/svg10.dtd">
<svg version="1.0" xmlns="http://www.w3.org/2000/svg"
 width="1024.000000pt" height="1024.000000pt" viewBox="0 0 1024.000000 1024.000000"
 preserveAspectRatio="xMidYMid meet">
<metadata>
Created by potrace 1.11, written by Peter Selinger 2001-2013
</metadata>
<g transform="translate(0.000000,1024.000000) scale(0.100000,-0.100000)"
fill="#000000" stroke="none">
<path d="M5531 10018 c-63 -10 -142 -46 -295 -135 -61 -36 -140 -81 -176 -101
-36 -19 -72 -41 -81 -48 -8 -8 -18 -14 -21 -14 -5 0 -165 -91 -228 -129 -21
-13 -583 -341 -633 -369 -51 -29 -1030 -600 -1187 -692 -284 -167 -504 -294
-745 -432 -143 -82 -271 -159 -285 -172 -111 -105 -178 -209 -214 -336 -31
-109 -29 -22 -21 -1225 6 -953 14 -2053 21 -3200 10 -1653 8 -1560 33 -1634
43 -124 114 -198 246 -256 44 -19 280 -114 525 -210 245 -97 454 -180 465
-185 23 -11 301 -120 625 -245 124 -48 276 -107 338 -131 62 -24 115 -44 118
-44 3 0 20 -6 37 -14 36 -16 253 -97 422 -158 132 -47 178 -58 270 -66 197
-17 284 5 390 99 17 15 95 75 175 135 80 60 150 112 155 116 49 39 167 129
195 148 19 14 42 30 50 37 36 29 124 96 245 188 72 54 184 140 250 190 66 50
143 108 170 129 28 20 57 43 66 50 9 8 52 40 95 72 43 33 85 65 94 71 8 7 148
114 310 237 162 124 300 229 305 233 6 5 84 65 175 133 91 69 167 128 170 131
3 3 52 41 110 84 93 70 268 205 310 238 8 7 44 34 80 62 205 155 289 228 327
282 34 49 50 78 58 103 43 136 38 56 49 805 4 226 9 536 11 690 13 788 18
1164 30 1950 5 346 15 992 20 1305 17 1055 17 1198 0 1257 -37 127 -119 236
-234 308 -55 35 -72 41 -326 110 -140 39 -1407 400 -1580 451 -65 19 -154 43
-184 50 -14 3 -28 7 -32 10 -18 11 -380 113 -425 119 -71 11 -211 12 -273 3z"/>
</g>
</svg>
